<mxfile host="app.diagrams.net" modified="2021-07-01T19:48:36.067Z" agent="5.0 (X11; Linux x86_64) AppleWebKit/537.36 (KHTML, like Gecko) Chrome/90.0.4430.214 Safari/537.36" etag="dg4BbUUxhvVS6_8fsrAZ" version="14.7.1" type="github">
  <diagram id="B7SO6LhxgRQyWa8REr9t" name="Page-1">
    <mxGraphModel dx="3309" dy="2469" grid="1" gridSize="10" guides="1" tooltips="1" connect="1" arrows="1" fold="1" page="1" pageScale="1" pageWidth="850" pageHeight="1100" background="#114B5F" math="0" shadow="0">
      <root>
        <mxCell id="0" />
        <mxCell id="1" parent="0" />
        <mxCell id="mHLDe494p_YbO8qeRfrM-2" value="" style="shape=note;whiteSpace=wrap;html=1;backgroundOutline=1;darkOpacity=0.05;fillColor=#FFF9B2;strokeColor=none;fillStyle=solid;direction=west;gradientDirection=north;gradientColor=#FFF2A1;sketch=1;shadow=1;size=20;fontSize=24;jiggle=2;pointerEvents=1;hachureGap=4;fontFamily=Architects Daughter;fontSource=https%3A%2F%2Ffonts.googleapis.com%2Fcss%3Ffamily%3DArchitects%2BDaughter;" parent="1" vertex="1">
          <mxGeometry x="190" y="-120" width="120" height="40" as="geometry" />
        </mxCell>
        <mxCell id="mHLDe494p_YbO8qeRfrM-1" value="enter app" style="text;html=1;align=center;verticalAlign=middle;resizable=0;points=[];autosize=1;strokeColor=none;sketch=1;hachureGap=4;pointerEvents=0;fontFamily=Architects Daughter;fontSource=https%3A%2F%2Ffonts.googleapis.com%2Fcss%3Ffamily%3DArchitects%2BDaughter;fontSize=20;rotation=0;" parent="1" vertex="1">
          <mxGeometry x="195" y="-120" width="110" height="30" as="geometry" />
        </mxCell>
        <mxCell id="mHLDe494p_YbO8qeRfrM-3" value="" style="shape=note;whiteSpace=wrap;html=1;backgroundOutline=1;darkOpacity=0.05;fillColor=#FFF9B2;strokeColor=none;fillStyle=solid;direction=west;gradientDirection=north;gradientColor=#FFF2A1;sketch=1;shadow=1;size=20;fontSize=24;jiggle=2;pointerEvents=1;hachureGap=4;fontFamily=Architects Daughter;fontSource=https%3A%2F%2Ffonts.googleapis.com%2Fcss%3Ffamily%3DArchitects%2BDaughter;" parent="1" vertex="1">
          <mxGeometry x="20" y="295" width="130" height="160" as="geometry" />
        </mxCell>
        <mxCell id="mHLDe494p_YbO8qeRfrM-4" value="app settings" style="text;html=1;align=center;verticalAlign=middle;resizable=0;points=[];autosize=1;sketch=1;hachureGap=4;pointerEvents=0;fontFamily=Architects Daughter;fontSource=https%3A%2F%2Ffonts.googleapis.com%2Fcss%3Ffamily%3DArchitects%2BDaughter;fontSize=20;fillColor=#e3c800;strokeColor=#B09500;fontColor=#000000;" parent="1" vertex="1">
          <mxGeometry x="20" y="295" width="130" height="30" as="geometry" />
        </mxCell>
        <mxCell id="mHLDe494p_YbO8qeRfrM-5" value="&lt;div style=&quot;text-align: left&quot;&gt;&lt;span&gt;help&lt;/span&gt;&lt;/div&gt;&lt;div style=&quot;text-align: left&quot;&gt;&lt;span&gt;reset&lt;/span&gt;&lt;/div&gt;&lt;div style=&quot;text-align: left&quot;&gt;&lt;/div&gt;&lt;span style=&quot;text-align: left&quot;&gt;update&lt;/span&gt;&lt;div style=&quot;text-align: left&quot;&gt;&lt;span&gt;about&lt;/span&gt;&lt;/div&gt;&lt;div style=&quot;text-align: left&quot;&gt;&lt;span&gt;quit&lt;/span&gt;&lt;/div&gt;" style="text;html=1;resizable=0;autosize=1;align=center;verticalAlign=middle;points=[];fillColor=none;strokeColor=none;rounded=0;sketch=1;hachureGap=4;pointerEvents=0;fontFamily=Architects Daughter;fontSource=https%3A%2F%2Ffonts.googleapis.com%2Fcss%3Ffamily%3DArchitects%2BDaughter;fontSize=20;" parent="1" vertex="1">
          <mxGeometry x="25" y="325" width="80" height="130" as="geometry" />
        </mxCell>
        <mxCell id="mHLDe494p_YbO8qeRfrM-6" value="" style="edgeStyle=none;curved=1;rounded=0;sketch=1;orthogonalLoop=1;jettySize=auto;html=1;endArrow=open;sourcePerimeterSpacing=8;targetPerimeterSpacing=8;fontSize=16;shape=flexArrow;rounded=1;startSize=8;endSize=8;fontFamily=Architects Daughter;fontSource=https%3A%2F%2Ffonts.googleapis.com%2Fcss%3Ffamily%3DArchitects%2BDaughter;fillColor=#e3c800;strokeColor=#B09500;exitX=0.72;exitY=-0.075;exitDx=0;exitDy=0;exitPerimeter=0;entryX=0.995;entryY=0.905;entryDx=0;entryDy=0;entryPerimeter=0;" parent="1" edge="1" target="mHLDe494p_YbO8qeRfrM-4" source="mHLDe494p_YbO8qeRfrM-12">
          <mxGeometry width="140" relative="1" as="geometry">
            <mxPoint x="255" y="260" as="sourcePoint" />
            <mxPoint x="256" y="351" as="targetPoint" />
            <Array as="points">
              <mxPoint x="224" y="322" />
            </Array>
          </mxGeometry>
        </mxCell>
        <mxCell id="mHLDe494p_YbO8qeRfrM-7" value="" style="shape=note;whiteSpace=wrap;html=1;backgroundOutline=1;darkOpacity=0.05;strokeColor=none;fillStyle=solid;direction=west;gradientDirection=north;gradientColor=#FFF2A1;sketch=1;shadow=1;size=20;fontSize=24;jiggle=2;pointerEvents=1;hachureGap=4;fontFamily=Architects Daughter;fontSource=https%3A%2F%2Ffonts.googleapis.com%2Fcss%3Ffamily%3DArchitects%2BDaughter;fillColor=#C3ABD0;" parent="1" vertex="1">
          <mxGeometry x="420" y="20" width="140" height="310" as="geometry" />
        </mxCell>
        <mxCell id="mHLDe494p_YbO8qeRfrM-8" value="&amp;nbsp; context&amp;nbsp;&amp;nbsp;" style="text;html=1;align=center;verticalAlign=middle;resizable=0;points=[];autosize=1;strokeColor=#B09500;sketch=1;hachureGap=4;pointerEvents=0;fontFamily=Architects Daughter;fontSource=https%3A%2F%2Ffonts.googleapis.com%2Fcss%3Ffamily%3DArchitects%2BDaughter;fontSize=20;fillColor=#e3c800;fontColor=#000000;" parent="1" vertex="1">
          <mxGeometry x="430" y="25" width="120" height="30" as="geometry" />
        </mxCell>
        <mxCell id="mHLDe494p_YbO8qeRfrM-11" value="" style="edgeStyle=none;curved=1;rounded=0;sketch=1;orthogonalLoop=1;jettySize=auto;html=1;endArrow=open;sourcePerimeterSpacing=8;targetPerimeterSpacing=8;fontSize=16;shape=flexArrow;rounded=1;startSize=8;endSize=8;fontFamily=Architects Daughter;fontSource=https%3A%2F%2Ffonts.googleapis.com%2Fcss%3Ffamily%3DArchitects%2BDaughter;fillColor=#e3c800;strokeColor=#B09500;exitX=0.202;exitY=0.983;exitDx=0;exitDy=0;exitPerimeter=0;entryX=1.007;entryY=0.477;entryDx=0;entryDy=0;entryPerimeter=0;" parent="1" edge="1" target="mHLDe494p_YbO8qeRfrM-7" source="mHLDe494p_YbO8qeRfrM-12">
          <mxGeometry width="140" relative="1" as="geometry">
            <mxPoint x="325" y="230" as="sourcePoint" />
            <mxPoint x="385" y="230" as="targetPoint" />
            <Array as="points">
              <mxPoint x="286" y="180" />
            </Array>
          </mxGeometry>
        </mxCell>
        <mxCell id="mHLDe494p_YbO8qeRfrM-12" value="" style="shape=note;whiteSpace=wrap;html=1;backgroundOutline=1;darkOpacity=0.05;fillColor=#FFF9B2;strokeColor=none;fillStyle=solid;direction=west;gradientDirection=north;gradientColor=#FFF2A1;sketch=1;shadow=1;size=20;fontSize=24;jiggle=2;pointerEvents=1;hachureGap=4;fontFamily=Architects Daughter;fontSource=https%3A%2F%2Ffonts.googleapis.com%2Fcss%3Ffamily%3DArchitects%2BDaughter;" parent="1" vertex="1">
          <mxGeometry x="190" y="210" width="120" height="40" as="geometry" />
        </mxCell>
        <mxCell id="mHLDe494p_YbO8qeRfrM-13" value="app root" style="text;html=1;align=center;verticalAlign=middle;resizable=0;points=[];autosize=1;strokeColor=none;sketch=1;hachureGap=4;pointerEvents=0;fontFamily=Architects Daughter;fontSource=https%3A%2F%2Ffonts.googleapis.com%2Fcss%3Ffamily%3DArchitects%2BDaughter;fontSize=20;rotation=0;" parent="1" vertex="1">
          <mxGeometry x="200" y="210" width="100" height="30" as="geometry" />
        </mxCell>
        <mxCell id="mHLDe494p_YbO8qeRfrM-14" value="" style="edgeStyle=none;curved=1;rounded=0;sketch=1;orthogonalLoop=1;jettySize=auto;html=1;endArrow=open;sourcePerimeterSpacing=8;targetPerimeterSpacing=8;fontSize=16;shape=flexArrow;rounded=1;startSize=8;endSize=8;fontFamily=Architects Daughter;fontSource=https%3A%2F%2Ffonts.googleapis.com%2Fcss%3Ffamily%3DArchitects%2BDaughter;fillColor=#e3c800;strokeColor=#B09500;entryX=0.425;entryY=0.975;entryDx=0;entryDy=0;entryPerimeter=0;exitX=0;exitY=0;exitDx=50;exitDy=0;exitPerimeter=0;" parent="1" edge="1" target="mHLDe494p_YbO8qeRfrM-12" source="mHLDe494p_YbO8qeRfrM-2">
          <mxGeometry width="140" relative="1" as="geometry">
            <mxPoint x="110" y="230" as="sourcePoint" />
            <mxPoint x="180" y="230" as="targetPoint" />
            <Array as="points" />
          </mxGeometry>
        </mxCell>
        <mxCell id="mHLDe494p_YbO8qeRfrM-16" value="" style="edgeStyle=none;curved=1;rounded=0;sketch=1;orthogonalLoop=1;jettySize=auto;html=1;endArrow=open;sourcePerimeterSpacing=8;targetPerimeterSpacing=8;fontSize=16;shape=flexArrow;rounded=1;startSize=8;endSize=8;fontFamily=Architects Daughter;fontSource=https%3A%2F%2Ffonts.googleapis.com%2Fcss%3Ffamily%3DArchitects%2BDaughter;fillColor=#e3c800;strokeColor=#B09500;entryX=0;entryY=0;entryDx=110;entryDy=10;entryPerimeter=0;exitX=0.992;exitY=0.696;exitDx=0;exitDy=0;exitPerimeter=0;" parent="1" target="mHLDe494p_YbO8qeRfrM-12" edge="1" source="mHLDe494p_YbO8qeRfrM-3">
          <mxGeometry width="140" relative="1" as="geometry">
            <mxPoint x="190" y="370" as="sourcePoint" />
            <mxPoint x="220" y="258" as="targetPoint" />
            <Array as="points">
              <mxPoint x="-20" y="310" />
              <mxPoint x="-20" y="270" />
              <mxPoint x="160" y="270" />
            </Array>
          </mxGeometry>
        </mxCell>
        <mxCell id="mHLDe494p_YbO8qeRfrM-17" value="" style="shape=note;whiteSpace=wrap;html=1;backgroundOutline=1;darkOpacity=0.05;fillColor=#FFF9B2;strokeColor=none;fillStyle=solid;direction=west;gradientDirection=north;gradientColor=#FFF2A1;sketch=1;shadow=1;size=20;fontSize=24;jiggle=2;pointerEvents=1;hachureGap=4;fontFamily=Architects Daughter;fontSource=https%3A%2F%2Ffonts.googleapis.com%2Fcss%3Ffamily%3DArchitects%2BDaughter;" parent="1" vertex="1">
          <mxGeometry x="-180" y="336.25" width="90" height="40" as="geometry" />
        </mxCell>
        <mxCell id="mHLDe494p_YbO8qeRfrM-18" value="git pull" style="text;html=1;align=center;verticalAlign=middle;resizable=0;points=[];autosize=1;strokeColor=none;sketch=1;hachureGap=4;pointerEvents=0;fontFamily=Architects Daughter;fontSource=https%3A%2F%2Ffonts.googleapis.com%2Fcss%3Ffamily%3DArchitects%2BDaughter;fontSize=20;" parent="1" vertex="1">
          <mxGeometry x="-170" y="336.25" width="70" height="30" as="geometry" />
        </mxCell>
        <mxCell id="mHLDe494p_YbO8qeRfrM-22" value="" style="edgeStyle=none;curved=1;rounded=0;sketch=1;orthogonalLoop=1;jettySize=auto;html=1;endArrow=open;sourcePerimeterSpacing=8;targetPerimeterSpacing=8;fontSize=16;shape=flexArrow;rounded=1;startSize=8;endSize=8;fontFamily=Architects Daughter;fontSource=https%3A%2F%2Ffonts.googleapis.com%2Fcss%3Ffamily%3DArchitects%2BDaughter;fillColor=#e3c800;strokeColor=#B09500;entryX=0.24;entryY=-0.1;entryDx=0;entryDy=0;entryPerimeter=0;exitX=0.5;exitY=1;exitDx=0;exitDy=0;exitPerimeter=0;" parent="1" edge="1" target="mHLDe494p_YbO8qeRfrM-13" source="mHLDe494p_YbO8qeRfrM-17">
          <mxGeometry width="140" relative="1" as="geometry">
            <mxPoint x="70" y="400" as="sourcePoint" />
            <mxPoint x="180" y="240" as="targetPoint" />
            <Array as="points">
              <mxPoint x="-135" y="160" />
              <mxPoint x="220" y="150" />
            </Array>
          </mxGeometry>
        </mxCell>
        <mxCell id="mHLDe494p_YbO8qeRfrM-23" value="" style="shape=note;whiteSpace=wrap;html=1;backgroundOutline=1;darkOpacity=0.05;fillColor=#FFF9B2;strokeColor=none;fillStyle=solid;direction=west;gradientDirection=north;gradientColor=#FFF2A1;sketch=1;shadow=1;size=20;fontSize=24;jiggle=2;pointerEvents=1;hachureGap=4;fontFamily=Architects Daughter;fontSource=https%3A%2F%2Ffonts.googleapis.com%2Fcss%3Ffamily%3DArchitects%2BDaughter;" parent="1" vertex="1">
          <mxGeometry x="-210" y="386.25" width="120" height="40" as="geometry" />
        </mxCell>
        <mxCell id="mHLDe494p_YbO8qeRfrM-24" value="about page" style="text;html=1;align=center;verticalAlign=middle;resizable=0;points=[];autosize=1;strokeColor=none;sketch=1;hachureGap=4;pointerEvents=0;fontFamily=Architects Daughter;fontSource=https%3A%2F%2Ffonts.googleapis.com%2Fcss%3Ffamily%3DArchitects%2BDaughter;fontSize=20;" parent="1" vertex="1">
          <mxGeometry x="-210" y="386.25" width="120" height="30" as="geometry" />
        </mxCell>
        <mxCell id="mHLDe494p_YbO8qeRfrM-27" value="" style="edgeStyle=none;curved=1;rounded=0;sketch=1;orthogonalLoop=1;jettySize=auto;html=1;endArrow=open;sourcePerimeterSpacing=8;targetPerimeterSpacing=8;fontSize=16;shape=flexArrow;rounded=1;startSize=8;endSize=8;fontFamily=Architects Daughter;fontSource=https%3A%2F%2Ffonts.googleapis.com%2Fcss%3Ffamily%3DArchitects%2BDaughter;fillColor=#e3c800;strokeColor=#B09500;entryX=0;entryY=0.5;entryDx=0;entryDy=0;entryPerimeter=0;exitX=-0.019;exitY=0.733;exitDx=0;exitDy=0;exitPerimeter=0;" parent="1" source="mHLDe494p_YbO8qeRfrM-5" target="mHLDe494p_YbO8qeRfrM-23" edge="1">
          <mxGeometry width="140" relative="1" as="geometry">
            <mxPoint x="170" y="633.75" as="sourcePoint" />
            <mxPoint x="240" y="633.75" as="targetPoint" />
            <Array as="points" />
          </mxGeometry>
        </mxCell>
        <mxCell id="mHLDe494p_YbO8qeRfrM-28" value="" style="edgeStyle=none;curved=1;rounded=0;sketch=1;orthogonalLoop=1;jettySize=auto;html=1;endArrow=open;sourcePerimeterSpacing=8;targetPerimeterSpacing=8;fontSize=16;shape=flexArrow;rounded=1;startSize=8;endSize=8;fontFamily=Architects Daughter;fontSource=https%3A%2F%2Ffonts.googleapis.com%2Fcss%3Ffamily%3DArchitects%2BDaughter;fillColor=#e3c800;strokeColor=#B09500;entryX=0;entryY=0.5;entryDx=0;entryDy=0;entryPerimeter=0;exitX=0.991;exitY=0.408;exitDx=0;exitDy=0;exitPerimeter=0;" parent="1" target="mHLDe494p_YbO8qeRfrM-17" edge="1" source="mHLDe494p_YbO8qeRfrM-3">
          <mxGeometry width="140" relative="1" as="geometry">
            <mxPoint x="198.48000000000002" y="509.03999999999996" as="sourcePoint" />
            <mxPoint x="130" y="543.75" as="targetPoint" />
            <Array as="points" />
          </mxGeometry>
        </mxCell>
        <mxCell id="mHLDe494p_YbO8qeRfrM-29" value="" style="edgeStyle=none;curved=1;rounded=0;sketch=1;orthogonalLoop=1;jettySize=auto;html=1;endArrow=open;sourcePerimeterSpacing=8;targetPerimeterSpacing=8;fontSize=16;shape=flexArrow;rounded=1;startSize=8;endSize=8;fontFamily=Architects Daughter;fontSource=https%3A%2F%2Ffonts.googleapis.com%2Fcss%3Ffamily%3DArchitects%2BDaughter;fillColor=#e3c800;strokeColor=#B09500;exitX=0.033;exitY=0.336;exitDx=0;exitDy=0;exitPerimeter=0;entryX=1.035;entryY=0.854;entryDx=0;entryDy=0;entryPerimeter=0;" parent="1" source="mHLDe494p_YbO8qeRfrM-5" edge="1" target="mHLDe494p_YbO8qeRfrM-12">
          <mxGeometry width="140" relative="1" as="geometry">
            <mxPoint x="200" y="380" as="sourcePoint" />
            <mxPoint x="200" y="250" as="targetPoint" />
            <Array as="points">
              <mxPoint x="-70" y="320" />
              <mxPoint x="-70" y="216" />
            </Array>
          </mxGeometry>
        </mxCell>
        <mxCell id="mHLDe494p_YbO8qeRfrM-30" value="" style="shape=note;whiteSpace=wrap;html=1;backgroundOutline=1;darkOpacity=0.05;fillColor=#FFF9B2;strokeColor=none;fillStyle=solid;direction=west;gradientDirection=north;gradientColor=#FFF2A1;sketch=1;shadow=1;size=20;fontSize=24;jiggle=2;pointerEvents=1;hachureGap=4;fontFamily=Architects Daughter;fontSource=https%3A%2F%2Ffonts.googleapis.com%2Fcss%3Ffamily%3DArchitects%2BDaughter;" parent="1" vertex="1">
          <mxGeometry x="-170" y="436.25" width="80" height="40" as="geometry" />
        </mxCell>
        <mxCell id="mHLDe494p_YbO8qeRfrM-31" value="close" style="text;html=1;align=center;verticalAlign=middle;resizable=0;points=[];autosize=1;strokeColor=none;sketch=1;hachureGap=4;pointerEvents=0;fontFamily=Architects Daughter;fontSource=https%3A%2F%2Ffonts.googleapis.com%2Fcss%3Ffamily%3DArchitects%2BDaughter;fontSize=20;" parent="1" vertex="1">
          <mxGeometry x="-160" y="436.25" width="60" height="30" as="geometry" />
        </mxCell>
        <mxCell id="mHLDe494p_YbO8qeRfrM-32" value="" style="edgeStyle=none;curved=1;rounded=0;sketch=1;orthogonalLoop=1;jettySize=auto;html=1;endArrow=open;sourcePerimeterSpacing=8;targetPerimeterSpacing=8;fontSize=16;shape=flexArrow;rounded=1;startSize=8;endSize=8;fontFamily=Architects Daughter;fontSource=https%3A%2F%2Ffonts.googleapis.com%2Fcss%3Ffamily%3DArchitects%2BDaughter;fillColor=#e3c800;strokeColor=#B09500;entryX=0;entryY=0.5;entryDx=0;entryDy=0;entryPerimeter=0;exitX=0.951;exitY=0.07;exitDx=0;exitDy=0;exitPerimeter=0;" parent="1" target="mHLDe494p_YbO8qeRfrM-30" edge="1" source="mHLDe494p_YbO8qeRfrM-3">
          <mxGeometry width="140" relative="1" as="geometry">
            <mxPoint x="208" y="563.75" as="sourcePoint" />
            <mxPoint x="250" y="688.46" as="targetPoint" />
            <Array as="points" />
          </mxGeometry>
        </mxCell>
        <mxCell id="mHLDe494p_YbO8qeRfrM-33" value="" style="shape=note;whiteSpace=wrap;html=1;backgroundOutline=1;darkOpacity=0.05;strokeColor=none;fillStyle=solid;direction=west;gradientDirection=north;gradientColor=#FFF2A1;sketch=1;shadow=1;size=20;fontSize=24;jiggle=2;pointerEvents=1;hachureGap=4;fontFamily=Architects Daughter;fontSource=https%3A%2F%2Ffonts.googleapis.com%2Fcss%3Ffamily%3DArchitects%2BDaughter;fillColor=#C3ABD0;" parent="1" vertex="1">
          <mxGeometry x="835" y="21.25" width="140" height="195" as="geometry" />
        </mxCell>
        <mxCell id="mHLDe494p_YbO8qeRfrM-34" value="&lt;div style=&quot;text-align: left&quot;&gt;&lt;span&gt;help&lt;/span&gt;&lt;/div&gt;&lt;div style=&quot;text-align: left&quot;&gt;&lt;span&gt;q&lt;/span&gt;&lt;/div&gt;&lt;div style=&quot;text-align: left&quot;&gt;&lt;span&gt;quit&lt;/span&gt;&lt;/div&gt;&lt;div style=&quot;text-align: left&quot;&gt;&lt;span&gt;&lt;br&gt;&lt;/span&gt;&lt;/div&gt;&lt;div style=&quot;text-align: left&quot;&gt;&lt;span&gt;dd&lt;/span&gt;&lt;/div&gt;&lt;div style=&quot;text-align: left&quot;&gt;&lt;span&gt;econ&lt;/span&gt;&lt;/div&gt;" style="text;html=1;align=center;verticalAlign=middle;resizable=0;points=[];autosize=1;strokeColor=none;sketch=1;hachureGap=4;pointerEvents=0;fontFamily=Architects Daughter;fontSource=https%3A%2F%2Ffonts.googleapis.com%2Fcss%3Ffamily%3DArchitects%2BDaughter;fontSize=20;" parent="1" vertex="1">
          <mxGeometry x="855" y="56.25" width="60" height="150" as="geometry" />
        </mxCell>
        <mxCell id="mHLDe494p_YbO8qeRfrM-35" value="&amp;nbsp; &amp;nbsp;mill&amp;nbsp; &amp;nbsp;" style="text;html=1;align=center;verticalAlign=middle;resizable=0;points=[];autosize=1;strokeColor=#B09500;sketch=1;hachureGap=4;pointerEvents=0;fontFamily=Architects Daughter;fontSource=https%3A%2F%2Ffonts.googleapis.com%2Fcss%3Ffamily%3DArchitects%2BDaughter;fontSize=20;fillColor=#e3c800;fontColor=#000000;" parent="1" vertex="1">
          <mxGeometry x="860" y="26.25" width="90" height="30" as="geometry" />
        </mxCell>
        <mxCell id="mHLDe494p_YbO8qeRfrM-37" value="&lt;div style=&quot;text-align: left&quot;&gt;mill&lt;/div&gt;&lt;div style=&quot;text-align: left&quot;&gt;econ&lt;/div&gt;&lt;div style=&quot;text-align: left&quot;&gt;pa&lt;/div&gt;&lt;div style=&quot;text-align: left&quot;&gt;bro&lt;/div&gt;&lt;div style=&quot;text-align: left&quot;&gt;crypto&lt;/div&gt;&lt;div style=&quot;text-align: left&quot;&gt;po&lt;/div&gt;&lt;div style=&quot;text-align: left&quot;&gt;gov&lt;/div&gt;&lt;div style=&quot;text-align: left&quot;&gt;etf&lt;/div&gt;&lt;div style=&quot;text-align: left&quot;&gt;fx&lt;/div&gt;&lt;div style=&quot;text-align: left&quot;&gt;rc&lt;/div&gt;&lt;div style=&quot;text-align: left&quot;&gt;op&lt;/div&gt;" style="text;html=1;align=center;verticalAlign=middle;resizable=0;points=[];autosize=1;strokeColor=none;sketch=1;hachureGap=4;pointerEvents=0;fontFamily=Architects Daughter;fontSource=https%3A%2F%2Ffonts.googleapis.com%2Fcss%3Ffamily%3DArchitects%2BDaughter;fontSize=20;" parent="1" vertex="1">
          <mxGeometry x="450" y="50" width="80" height="270" as="geometry" />
        </mxCell>
        <mxCell id="mHLDe494p_YbO8qeRfrM-38" value="" style="edgeStyle=none;curved=1;rounded=0;sketch=1;orthogonalLoop=1;jettySize=auto;html=1;endArrow=open;sourcePerimeterSpacing=8;targetPerimeterSpacing=8;fontSize=16;shape=flexArrow;rounded=1;startSize=8;endSize=61.04;fontFamily=Architects Daughter;fontSource=https%3A%2F%2Ffonts.googleapis.com%2Fcss%3Ffamily%3DArchitects%2BDaughter;strokeColor=#B09500;endWidth=239.16666666666669;fillColor=#C3ABD0;width=20.666666666666668;" parent="1" edge="1">
          <mxGeometry width="140" relative="1" as="geometry">
            <mxPoint x="609.9999999999998" y="177.5" as="sourcePoint" />
            <mxPoint x="795" y="180" as="targetPoint" />
            <Array as="points" />
          </mxGeometry>
        </mxCell>
        <mxCell id="mHLDe494p_YbO8qeRfrM-39" value="" style="shape=note;whiteSpace=wrap;html=1;backgroundOutline=1;darkOpacity=0.05;strokeColor=none;fillStyle=solid;direction=west;gradientDirection=north;gradientColor=#FFF2A1;sketch=1;shadow=1;size=20;fontSize=24;jiggle=2;pointerEvents=1;hachureGap=4;fontFamily=Architects Daughter;fontSource=https%3A%2F%2Ffonts.googleapis.com%2Fcss%3Ffamily%3DArchitects%2BDaughter;fillColor=#C3ABD0;" parent="1" vertex="1">
          <mxGeometry x="1030" y="16.25" width="170" height="480" as="geometry" />
        </mxCell>
        <mxCell id="mHLDe494p_YbO8qeRfrM-40" value="&lt;div style=&quot;text-align: left&quot;&gt;help&lt;/div&gt;&lt;div style=&quot;text-align: left&quot;&gt;q&lt;/div&gt;&lt;div style=&quot;text-align: left&quot;&gt;quit&lt;/div&gt;&lt;div style=&quot;text-align: left&quot;&gt;&lt;br&gt;&lt;/div&gt;&lt;div style=&quot;text-align: left&quot;&gt;feargreed&lt;/div&gt;&lt;div style=&quot;text-align: left&quot;&gt;events&lt;/div&gt;&lt;div style=&quot;text-align: left&quot;&gt;fred&lt;/div&gt;&lt;div style=&quot;text-align: left&quot;&gt;vixcls&lt;/div&gt;&lt;div style=&quot;text-align: left&quot;&gt;gdp&lt;/div&gt;&lt;div style=&quot;text-align: left&quot;&gt;unrate&lt;/div&gt;&lt;div style=&quot;text-align: left&quot;&gt;dgs1&lt;/div&gt;&lt;div style=&quot;text-align: left&quot;&gt;dgs5&lt;/div&gt;&lt;div style=&quot;text-align: left&quot;&gt;dgs10&lt;/div&gt;&lt;div style=&quot;text-align: left&quot;&gt;dgs30&lt;/div&gt;&lt;div style=&quot;text-align: left&quot;&gt;mortgage30us&lt;/div&gt;&lt;div style=&quot;text-align: left&quot;&gt;fedfunds&lt;/div&gt;&lt;div style=&quot;text-align: left&quot;&gt;aaa&lt;/div&gt;&lt;div style=&quot;text-align: left&quot;&gt;dexcaus&lt;/div&gt;" style="text;html=1;align=center;verticalAlign=middle;resizable=0;points=[];autosize=1;strokeColor=none;sketch=1;hachureGap=4;pointerEvents=0;fontFamily=Architects Daughter;fontSource=https%3A%2F%2Ffonts.googleapis.com%2Fcss%3Ffamily%3DArchitects%2BDaughter;fontSize=20;fillColor=#C3ABD0;" parent="1" vertex="1">
          <mxGeometry x="1040" y="51.25" width="150" height="440" as="geometry" />
        </mxCell>
        <mxCell id="mHLDe494p_YbO8qeRfrM-41" value="&amp;nbsp; &amp;nbsp; &amp;nbsp;econ&amp;nbsp; &amp;nbsp;&amp;nbsp;" style="text;html=1;align=center;verticalAlign=middle;resizable=0;points=[];autosize=1;strokeColor=#B09500;sketch=1;hachureGap=4;pointerEvents=0;fontFamily=Architects Daughter;fontSource=https%3A%2F%2Ffonts.googleapis.com%2Fcss%3Ffamily%3DArchitects%2BDaughter;fontSize=20;fillColor=#e3c800;fontColor=#000000;" parent="1" vertex="1">
          <mxGeometry x="1050" y="21.25" width="130" height="30" as="geometry" />
        </mxCell>
        <mxCell id="mHLDe494p_YbO8qeRfrM-42" value="" style="shape=note;whiteSpace=wrap;html=1;backgroundOutline=1;darkOpacity=0.05;strokeColor=none;fillStyle=solid;direction=west;gradientDirection=north;gradientColor=#FFF2A1;sketch=1;shadow=1;size=20;fontSize=24;jiggle=2;pointerEvents=1;hachureGap=4;fontFamily=Architects Daughter;fontSource=https%3A%2F%2Ffonts.googleapis.com%2Fcss%3Ffamily%3DArchitects%2BDaughter;fillColor=#C3ABD0;" parent="1" vertex="1">
          <mxGeometry x="1255" y="596.25" width="140" height="160" as="geometry" />
        </mxCell>
        <mxCell id="mHLDe494p_YbO8qeRfrM-43" value="&lt;div style=&quot;text-align: left&quot;&gt;help&lt;/div&gt;&lt;div style=&quot;text-align: left&quot;&gt;q&lt;/div&gt;&lt;div style=&quot;text-align: left&quot;&gt;quit&lt;/div&gt;&lt;div style=&quot;text-align: left&quot;&gt;&lt;br&gt;&lt;/div&gt;&lt;div style=&quot;text-align: left&quot;&gt;load&amp;nbsp;&lt;/div&gt;" style="text;html=1;align=center;verticalAlign=middle;resizable=0;points=[];autosize=1;strokeColor=none;sketch=1;hachureGap=4;pointerEvents=0;fontFamily=Architects Daughter;fontSource=https%3A%2F%2Ffonts.googleapis.com%2Fcss%3Ffamily%3DArchitects%2BDaughter;fontSize=20;" parent="1" vertex="1">
          <mxGeometry x="1275" y="626.25" width="60" height="130" as="geometry" />
        </mxCell>
        <mxCell id="mHLDe494p_YbO8qeRfrM-44" value="&amp;nbsp; &amp;nbsp;pa&amp;nbsp; &amp;nbsp;&amp;nbsp;" style="text;html=1;align=center;verticalAlign=middle;resizable=0;points=[];autosize=1;strokeColor=#B09500;sketch=1;hachureGap=4;pointerEvents=0;fontFamily=Architects Daughter;fontSource=https%3A%2F%2Ffonts.googleapis.com%2Fcss%3Ffamily%3DArchitects%2BDaughter;fontSize=20;fillColor=#e3c800;fontColor=#000000;" parent="1" vertex="1">
          <mxGeometry x="1280" y="601.25" width="90" height="30" as="geometry" />
        </mxCell>
        <mxCell id="mHLDe494p_YbO8qeRfrM-45" value="" style="shape=note;whiteSpace=wrap;html=1;backgroundOutline=1;darkOpacity=0.05;strokeColor=none;fillStyle=solid;direction=west;gradientDirection=north;gradientColor=#FFF2A1;sketch=1;shadow=1;size=20;fontSize=24;jiggle=2;pointerEvents=1;hachureGap=4;fontFamily=Architects Daughter;fontSource=https%3A%2F%2Ffonts.googleapis.com%2Fcss%3Ffamily%3DArchitects%2BDaughter;fillColor=#C3ABD0;" parent="1" vertex="1">
          <mxGeometry x="1255" y="16.25" width="140" height="560" as="geometry" />
        </mxCell>
        <mxCell id="mHLDe494p_YbO8qeRfrM-46" value="&lt;div style=&quot;text-align: left&quot;&gt;&lt;span&gt;help&lt;/span&gt;&lt;/div&gt;&lt;div style=&quot;text-align: left&quot;&gt;&lt;span&gt;q&lt;/span&gt;&lt;/div&gt;&lt;div style=&quot;text-align: left&quot;&gt;&lt;span&gt;quit&lt;/span&gt;&lt;/div&gt;&lt;div style=&quot;text-align: left&quot;&gt;&lt;br&gt;&lt;/div&gt;&lt;div style=&quot;text-align: left&quot;&gt;ally&lt;/div&gt;&lt;div style=&quot;text-align: left&quot;&gt;&amp;nbsp; allyhold&lt;/div&gt;&lt;div style=&quot;text-align: left&quot;&gt;&lt;br&gt;&lt;/div&gt;&lt;div style=&quot;text-align: left&quot;&gt;alpaca&lt;/div&gt;&lt;div style=&quot;text-align: left&quot;&gt;&amp;nbsp; alphold&lt;/div&gt;&lt;div style=&quot;text-align: left&quot;&gt;&amp;nbsp; aplhist&lt;/div&gt;&lt;div style=&quot;text-align: left&quot;&gt;&lt;br&gt;&lt;/div&gt;&lt;div style=&quot;text-align: left&quot;&gt;robinhood&lt;/div&gt;&lt;div style=&quot;text-align: left&quot;&gt;&amp;nbsp; rhhold&lt;/div&gt;&lt;div style=&quot;text-align: left&quot;&gt;&amp;nbsp; rhhist&lt;/div&gt;&lt;div style=&quot;text-align: left&quot;&gt;&lt;br&gt;&lt;/div&gt;&lt;div style=&quot;text-align: left&quot;&gt;degiro&lt;/div&gt;&lt;div style=&quot;text-align: left&quot;&gt;&amp;gt; degiro&lt;/div&gt;&lt;div style=&quot;text-align: left&quot;&gt;&lt;br&gt;&lt;/div&gt;&lt;div style=&quot;text-align: left&quot;&gt;merge&lt;/div&gt;&lt;div style=&quot;text-align: left&quot;&gt;&amp;nbsp; login&lt;/div&gt;&lt;div style=&quot;text-align: left&quot;&gt;&amp;nbsp; hold&lt;/div&gt;" style="text;html=1;align=center;verticalAlign=middle;resizable=0;points=[];autosize=1;strokeColor=none;sketch=1;hachureGap=4;pointerEvents=0;fontFamily=Architects Daughter;fontSource=https%3A%2F%2Ffonts.googleapis.com%2Fcss%3Ffamily%3DArchitects%2BDaughter;fontSize=20;" parent="1" vertex="1">
          <mxGeometry x="1275" y="56.25" width="100" height="510" as="geometry" />
        </mxCell>
        <mxCell id="mHLDe494p_YbO8qeRfrM-47" value="&amp;nbsp; &amp;nbsp; bro&amp;nbsp; &amp;nbsp;&amp;nbsp;" style="text;html=1;align=center;verticalAlign=middle;resizable=0;points=[];autosize=1;strokeColor=#B09500;sketch=1;hachureGap=4;pointerEvents=0;fontFamily=Architects Daughter;fontSource=https%3A%2F%2Ffonts.googleapis.com%2Fcss%3Ffamily%3DArchitects%2BDaughter;fontSize=20;fillColor=#e3c800;fontColor=#000000;" parent="1" vertex="1">
          <mxGeometry x="1270" y="21.25" width="110" height="30" as="geometry" />
        </mxCell>
        <mxCell id="mHLDe494p_YbO8qeRfrM-48" value="" style="shape=note;whiteSpace=wrap;html=1;backgroundOutline=1;darkOpacity=0.05;strokeColor=none;fillStyle=solid;direction=west;gradientDirection=north;gradientColor=#FFF2A1;sketch=1;shadow=1;size=20;fontSize=24;jiggle=2;pointerEvents=1;hachureGap=4;fontFamily=Architects Daughter;fontSource=https%3A%2F%2Ffonts.googleapis.com%2Fcss%3Ffamily%3DArchitects%2BDaughter;fillColor=#C3ABD0;" parent="1" vertex="1">
          <mxGeometry x="1435" y="16.25" width="170" height="520" as="geometry" />
        </mxCell>
        <mxCell id="mHLDe494p_YbO8qeRfrM-49" value="&lt;div style=&quot;text-align: left&quot;&gt;help&lt;/div&gt;&lt;div style=&quot;text-align: left&quot;&gt;q&lt;/div&gt;&lt;div style=&quot;text-align: left&quot;&gt;quit&lt;/div&gt;&lt;div style=&quot;text-align: left&quot;&gt;&lt;br&gt;&lt;/div&gt;&lt;div style=&quot;text-align: left&quot;&gt;coingecko&lt;/div&gt;&lt;div style=&quot;text-align: left&quot;&gt;&amp;nbsp; load&lt;/div&gt;&lt;div style=&quot;text-align: left&quot;&gt;&amp;nbsp; view&lt;/div&gt;&lt;div style=&quot;text-align: left&quot;&gt;&amp;nbsp; trend&lt;/div&gt;&lt;div style=&quot;text-align: left&quot;&gt;&lt;br&gt;&lt;/div&gt;&lt;div style=&quot;text-align: left&quot;&gt;coinmarketcap&lt;/div&gt;&lt;div style=&quot;text-align: left&quot;&gt;&amp;nbsp; top&lt;/div&gt;&lt;div style=&quot;text-align: left&quot;&gt;&lt;br&gt;&lt;/div&gt;&lt;div style=&quot;text-align: left&quot;&gt;binance&lt;/div&gt;&lt;div style=&quot;text-align: left&quot;&gt;&amp;nbsp; select&lt;/div&gt;&lt;div style=&quot;text-align: left&quot;&gt;&amp;nbsp; book&lt;/div&gt;&lt;div style=&quot;text-align: left&quot;&gt;&amp;nbsp; candle&lt;/div&gt;&lt;div style=&quot;text-align: left&quot;&gt;&amp;nbsp; balance&lt;/div&gt;&lt;div style=&quot;text-align: left&quot;&gt;&lt;br&gt;&lt;/div&gt;&lt;div style=&quot;text-align: left&quot;&gt;&amp;gt; ta&lt;/div&gt;&lt;div style=&quot;text-align: left&quot;&gt;&lt;br&gt;&lt;/div&gt;" style="text;html=1;align=center;verticalAlign=middle;resizable=0;points=[];autosize=1;strokeColor=none;sketch=1;hachureGap=4;pointerEvents=0;fontFamily=Architects Daughter;fontSource=https%3A%2F%2Ffonts.googleapis.com%2Fcss%3Ffamily%3DArchitects%2BDaughter;fontSize=20;" parent="1" vertex="1">
          <mxGeometry x="1445" y="56.25" width="150" height="490" as="geometry" />
        </mxCell>
        <mxCell id="mHLDe494p_YbO8qeRfrM-50" value="&amp;nbsp; &amp;nbsp;crypto&amp;nbsp; &amp;nbsp;" style="text;html=1;align=center;verticalAlign=middle;resizable=0;points=[];autosize=1;strokeColor=#B09500;sketch=1;hachureGap=4;pointerEvents=0;fontFamily=Architects Daughter;fontSource=https%3A%2F%2Ffonts.googleapis.com%2Fcss%3Ffamily%3DArchitects%2BDaughter;fontSize=20;fillColor=#e3c800;fontColor=#000000;" parent="1" vertex="1">
          <mxGeometry x="1455" y="21.25" width="130" height="30" as="geometry" />
        </mxCell>
        <mxCell id="mHLDe494p_YbO8qeRfrM-51" value="" style="shape=note;whiteSpace=wrap;html=1;backgroundOutline=1;darkOpacity=0.05;strokeColor=none;fillStyle=solid;direction=west;gradientDirection=north;gradientColor=#FFF2A1;sketch=1;shadow=1;size=20;fontSize=24;jiggle=2;pointerEvents=1;hachureGap=4;fontFamily=Architects Daughter;fontSource=https%3A%2F%2Ffonts.googleapis.com%2Fcss%3Ffamily%3DArchitects%2BDaughter;fillColor=#C3ABD0;" parent="1" vertex="1">
          <mxGeometry x="1645" y="13.75" width="200" height="582.5" as="geometry" />
        </mxCell>
        <mxCell id="mHLDe494p_YbO8qeRfrM-52" value="&lt;div style=&quot;text-align: left&quot;&gt;&lt;span&gt;help&lt;/span&gt;&lt;/div&gt;&lt;div style=&quot;text-align: left&quot;&gt;&lt;span&gt;q&lt;/span&gt;&lt;/div&gt;&lt;div style=&quot;text-align: left&quot;&gt;&lt;span&gt;quit&lt;/span&gt;&lt;/div&gt;&lt;div style=&quot;text-align: left&quot;&gt;&lt;span&gt;&lt;br&gt;&lt;/span&gt;&lt;/div&gt;&lt;div style=&quot;text-align: left&quot;&gt;select&lt;/div&gt;&lt;div style=&quot;text-align: left&quot;&gt;add&lt;/div&gt;&lt;div style=&quot;text-align: left&quot;&gt;rmv&lt;/div&gt;&lt;div style=&quot;text-align: left&quot;&gt;&lt;br&gt;&lt;/div&gt;&lt;div style=&quot;text-align: left&quot;&gt;optimization&lt;/div&gt;&lt;div style=&quot;text-align: left&quot;&gt;&amp;nbsp; equal&lt;/div&gt;&lt;div style=&quot;text-align: left&quot;&gt;&amp;nbsp; mktcap&lt;/div&gt;&lt;div style=&quot;text-align: left&quot;&gt;&amp;nbsp; dividend&lt;/div&gt;&lt;div style=&quot;text-align: left&quot;&gt;&amp;nbsp; property&lt;/div&gt;&lt;div style=&quot;text-align: left&quot;&gt;&lt;br&gt;&lt;/div&gt;&lt;div style=&quot;text-align: left&quot;&gt;meanVarianceOpts&lt;/div&gt;&lt;div style=&quot;text-align: left&quot;&gt;&amp;nbsp; maxsharpe&lt;/div&gt;&lt;div style=&quot;text-align: left&quot;&gt;&amp;nbsp; minvol&lt;/div&gt;&lt;div style=&quot;text-align: left&quot;&gt;&amp;nbsp; maxquadutil&lt;/div&gt;&lt;div style=&quot;text-align: left&quot;&gt;&amp;nbsp; effret&lt;/div&gt;&lt;div style=&quot;text-align: left&quot;&gt;&amp;nbsp; effrisk&lt;/div&gt;&lt;div style=&quot;text-align: left&quot;&gt;&lt;br&gt;&lt;/div&gt;&lt;div style=&quot;text-align: left&quot;&gt;&amp;nbsp; ef&lt;/div&gt;" style="text;html=1;align=center;verticalAlign=middle;resizable=0;points=[];autosize=1;strokeColor=none;sketch=1;hachureGap=4;pointerEvents=0;fontFamily=Architects Daughter;fontSource=https%3A%2F%2Ffonts.googleapis.com%2Fcss%3Ffamily%3DArchitects%2BDaughter;fontSize=20;" parent="1" vertex="1">
          <mxGeometry x="1650" y="48.75" width="190" height="530" as="geometry" />
        </mxCell>
        <mxCell id="mHLDe494p_YbO8qeRfrM-53" value="&amp;nbsp; &amp;nbsp; po&amp;nbsp; &amp;nbsp;&amp;nbsp;" style="text;html=1;align=center;verticalAlign=middle;resizable=0;points=[];autosize=1;strokeColor=#B09500;sketch=1;hachureGap=4;pointerEvents=0;fontFamily=Architects Daughter;fontSource=https%3A%2F%2Ffonts.googleapis.com%2Fcss%3Ffamily%3DArchitects%2BDaughter;fontSize=20;fillColor=#e3c800;fontColor=#000000;" parent="1" vertex="1">
          <mxGeometry x="1685" y="18.75" width="100" height="30" as="geometry" />
        </mxCell>
        <mxCell id="mHLDe494p_YbO8qeRfrM-54" value="" style="shape=note;whiteSpace=wrap;html=1;backgroundOutline=1;darkOpacity=0.05;strokeColor=none;fillStyle=solid;direction=west;gradientDirection=north;gradientColor=#FFF2A1;sketch=1;shadow=1;size=20;fontSize=24;jiggle=2;pointerEvents=1;hachureGap=4;fontFamily=Architects Daughter;fontSource=https%3A%2F%2Ffonts.googleapis.com%2Fcss%3Ffamily%3DArchitects%2BDaughter;fillColor=#C3ABD0;" parent="1" vertex="1">
          <mxGeometry x="820" y="226.25" width="170" height="570" as="geometry" />
        </mxCell>
        <mxCell id="mHLDe494p_YbO8qeRfrM-55" value="&lt;div style=&quot;text-align: left&quot;&gt;&lt;span&gt;help&lt;/span&gt;&lt;/div&gt;&lt;div style=&quot;text-align: left&quot;&gt;&lt;span&gt;q&lt;/span&gt;&lt;/div&gt;&lt;div style=&quot;text-align: left&quot;&gt;&lt;span&gt;quit&lt;/span&gt;&lt;/div&gt;&lt;div style=&quot;text-align: left&quot;&gt;&lt;span&gt;&lt;br&gt;&lt;/span&gt;&lt;/div&gt;&lt;div style=&quot;text-align: left&quot;&gt;last_contress&lt;/div&gt;&lt;div style=&quot;text-align: left&quot;&gt;buy_congress&lt;/div&gt;&lt;div style=&quot;text-align: left&quot;&gt;sell_congress&lt;/div&gt;&lt;div style=&quot;text-align: left&quot;&gt;&lt;br&gt;&lt;/div&gt;&lt;div style=&quot;text-align: left&quot;&gt;last senate&lt;/div&gt;&lt;div style=&quot;text-align: left&quot;&gt;buy_senate&lt;/div&gt;&lt;div style=&quot;text-align: left&quot;&gt;sell_senate&lt;/div&gt;&lt;div style=&quot;text-align: left&quot;&gt;&lt;br&gt;&lt;/div&gt;&lt;div style=&quot;text-align: left&quot;&gt;last_house&lt;/div&gt;&lt;div style=&quot;text-align: left&quot;&gt;buy_house&lt;/div&gt;&lt;div style=&quot;text-align: left&quot;&gt;sell_house&lt;/div&gt;&lt;div style=&quot;text-align: left&quot;&gt;&lt;br&gt;&lt;/div&gt;&lt;div style=&quot;text-align: left&quot;&gt;last_contracts&lt;/div&gt;&lt;div style=&quot;text-align: left&quot;&gt;sum_contracts&lt;/div&gt;&lt;div style=&quot;text-align: left&quot;&gt;qtr_contracts&lt;/div&gt;&lt;div style=&quot;text-align: left&quot;&gt;&lt;br&gt;&lt;/div&gt;&lt;div style=&quot;text-align: left&quot;&gt;top_lobbying&lt;/div&gt;" style="text;html=1;align=center;verticalAlign=middle;resizable=0;points=[];autosize=1;strokeColor=none;sketch=1;hachureGap=4;pointerEvents=0;fontFamily=Architects Daughter;fontSource=https%3A%2F%2Ffonts.googleapis.com%2Fcss%3Ffamily%3DArchitects%2BDaughter;fontSize=20;" parent="1" vertex="1">
          <mxGeometry x="820" y="266.25" width="160" height="510" as="geometry" />
        </mxCell>
        <mxCell id="mHLDe494p_YbO8qeRfrM-56" value="&amp;nbsp; &amp;nbsp; gov&amp;nbsp; &amp;nbsp;&amp;nbsp;" style="text;html=1;align=center;verticalAlign=middle;resizable=0;points=[];autosize=1;strokeColor=#B09500;sketch=1;hachureGap=4;pointerEvents=0;fontFamily=Architects Daughter;fontSource=https%3A%2F%2Ffonts.googleapis.com%2Fcss%3Ffamily%3DArchitects%2BDaughter;fontSize=20;fillColor=#e3c800;fontColor=#000000;" parent="1" vertex="1">
          <mxGeometry x="845" y="236.25" width="110" height="30" as="geometry" />
        </mxCell>
        <mxCell id="mHLDe494p_YbO8qeRfrM-57" value="" style="shape=note;whiteSpace=wrap;html=1;backgroundOutline=1;darkOpacity=0.05;strokeColor=none;fillStyle=solid;direction=west;gradientDirection=north;gradientColor=#FFF2A1;sketch=1;shadow=1;size=20;fontSize=24;jiggle=2;pointerEvents=1;hachureGap=4;fontFamily=Architects Daughter;fontSource=https%3A%2F%2Ffonts.googleapis.com%2Fcss%3Ffamily%3DArchitects%2BDaughter;fillColor=#C3ABD0;" parent="1" vertex="1">
          <mxGeometry x="1045" y="526.25" width="140" height="270" as="geometry" />
        </mxCell>
        <mxCell id="mHLDe494p_YbO8qeRfrM-58" value="&lt;div style=&quot;text-align: left&quot;&gt;help&lt;/div&gt;&lt;div style=&quot;text-align: left&quot;&gt;q&lt;/div&gt;&lt;div style=&quot;text-align: left&quot;&gt;quit&lt;/div&gt;&lt;div style=&quot;text-align: left&quot;&gt;&lt;br&gt;&lt;/div&gt;&lt;div style=&quot;text-align: left&quot;&gt;web&lt;/div&gt;&lt;div style=&quot;text-align: left&quot;&gt;search&lt;/div&gt;&lt;div style=&quot;text-align: left&quot;&gt;overview&lt;/div&gt;&lt;div style=&quot;text-align: left&quot;&gt;holdings&lt;/div&gt;&lt;div style=&quot;text-align: left&quot;&gt;compare&lt;/div&gt;" style="text;html=1;align=center;verticalAlign=middle;resizable=0;points=[];autosize=1;strokeColor=none;sketch=1;hachureGap=4;pointerEvents=0;fontFamily=Architects Daughter;fontSource=https%3A%2F%2Ffonts.googleapis.com%2Fcss%3Ffamily%3DArchitects%2BDaughter;fontSize=20;" parent="1" vertex="1">
          <mxGeometry x="1060" y="566.25" width="100" height="220" as="geometry" />
        </mxCell>
        <mxCell id="mHLDe494p_YbO8qeRfrM-59" value="&amp;nbsp; &amp;nbsp; etf&amp;nbsp; &amp;nbsp;&amp;nbsp;" style="text;html=1;align=center;verticalAlign=middle;resizable=0;points=[];autosize=1;strokeColor=#B09500;sketch=1;hachureGap=4;pointerEvents=0;fontFamily=Architects Daughter;fontSource=https%3A%2F%2Ffonts.googleapis.com%2Fcss%3Ffamily%3DArchitects%2BDaughter;fontSize=20;fillColor=#e3c800;fontColor=#000000;" parent="1" vertex="1">
          <mxGeometry x="1060" y="531.25" width="110" height="30" as="geometry" />
        </mxCell>
        <mxCell id="mHLDe494p_YbO8qeRfrM-60" value="" style="shape=note;whiteSpace=wrap;html=1;backgroundOutline=1;darkOpacity=0.05;strokeColor=none;fillStyle=solid;direction=west;gradientDirection=north;gradientColor=#FFF2A1;sketch=1;shadow=1;size=20;fontSize=24;jiggle=2;pointerEvents=1;hachureGap=4;fontFamily=Architects Daughter;fontSource=https%3A%2F%2Ffonts.googleapis.com%2Fcss%3Ffamily%3DArchitects%2BDaughter;fillColor=#C3ABD0;" parent="1" vertex="1">
          <mxGeometry x="1885" y="336.25" width="160" height="405" as="geometry" />
        </mxCell>
        <mxCell id="mHLDe494p_YbO8qeRfrM-61" value="&lt;div style=&quot;text-align: left&quot;&gt;help&lt;/div&gt;&lt;div style=&quot;text-align: left&quot;&gt;q&lt;/div&gt;&lt;div style=&quot;text-align: left&quot;&gt;quit&lt;/div&gt;&lt;div style=&quot;text-align: left&quot;&gt;&lt;br&gt;&lt;/div&gt;&lt;div style=&quot;text-align: left&quot;&gt;summary&lt;/div&gt;&lt;div style=&quot;text-align: left&quot;&gt;calendar&lt;/div&gt;&lt;div style=&quot;text-align: left&quot;&gt;list&lt;/div&gt;&lt;div style=&quot;text-align: left&quot;&gt;pending&lt;/div&gt;&lt;div style=&quot;text-align: left&quot;&gt;cancel&lt;/div&gt;&lt;div style=&quot;text-align: left&quot;&gt;positions&lt;/div&gt;&lt;div style=&quot;text-align: left&quot;&gt;trades&lt;/div&gt;&lt;div style=&quot;text-align: left&quot;&gt;closetrade&lt;/div&gt;&lt;div style=&quot;text-align: left&quot;&gt;&lt;br&gt;&lt;/div&gt;&lt;div style=&quot;text-align: left&quot;&gt;loaded instrum.&lt;/div&gt;&lt;div style=&quot;text-align: left&quot;&gt;&amp;nbsp; load&lt;/div&gt;" style="text;html=1;align=center;verticalAlign=middle;resizable=0;points=[];autosize=1;strokeColor=none;sketch=1;hachureGap=4;pointerEvents=0;fontFamily=Architects Daughter;fontSource=https%3A%2F%2Ffonts.googleapis.com%2Fcss%3Ffamily%3DArchitects%2BDaughter;fontSize=20;" parent="1" vertex="1">
          <mxGeometry x="1895" y="371.25" width="150" height="370" as="geometry" />
        </mxCell>
        <mxCell id="mHLDe494p_YbO8qeRfrM-62" value="&amp;nbsp; &amp;nbsp; fx&amp;nbsp; &amp;nbsp;&amp;nbsp;" style="text;html=1;align=center;verticalAlign=middle;resizable=0;points=[];autosize=1;strokeColor=#B09500;sketch=1;hachureGap=4;pointerEvents=0;fontFamily=Architects Daughter;fontSource=https%3A%2F%2Ffonts.googleapis.com%2Fcss%3Ffamily%3DArchitects%2BDaughter;fontSize=20;fillColor=#e3c800;fontColor=#000000;" parent="1" vertex="1">
          <mxGeometry x="1915" y="346.25" width="100" height="30" as="geometry" />
        </mxCell>
        <mxCell id="mHLDe494p_YbO8qeRfrM-63" value="" style="shape=note;whiteSpace=wrap;html=1;backgroundOutline=1;darkOpacity=0.05;strokeColor=none;fillStyle=solid;direction=west;gradientDirection=north;gradientColor=#FFF2A1;sketch=1;shadow=1;size=20;fontSize=24;jiggle=2;pointerEvents=1;hachureGap=4;fontFamily=Architects Daughter;fontSource=https%3A%2F%2Ffonts.googleapis.com%2Fcss%3Ffamily%3DArchitects%2BDaughter;fillColor=#C3ABD0;" parent="1" vertex="1">
          <mxGeometry x="1885" y="16.25" width="150" height="300" as="geometry" />
        </mxCell>
        <mxCell id="mHLDe494p_YbO8qeRfrM-64" value="&lt;div style=&quot;text-align: left&quot;&gt;help&lt;/div&gt;&lt;div style=&quot;text-align: left&quot;&gt;q&lt;/div&gt;&lt;div style=&quot;text-align: left&quot;&gt;quit&lt;/div&gt;&lt;div style=&quot;text-align: left&quot;&gt;&lt;br&gt;&lt;/div&gt;&lt;div style=&quot;text-align: left&quot;&gt;hfletters&lt;/div&gt;&lt;div style=&quot;text-align: left&quot;&gt;arxiv&lt;/div&gt;&lt;div style=&quot;text-align: left&quot;&gt;finra&lt;/div&gt;&lt;div style=&quot;text-align: left&quot;&gt;edgar&lt;/div&gt;&lt;div style=&quot;text-align: left&quot;&gt;fred&lt;/div&gt;&lt;div style=&quot;text-align: left&quot;&gt;learn&lt;/div&gt;" style="text;html=1;align=center;verticalAlign=middle;resizable=0;points=[];autosize=1;strokeColor=none;sketch=1;hachureGap=4;pointerEvents=0;fontFamily=Architects Daughter;fontSource=https%3A%2F%2Ffonts.googleapis.com%2Fcss%3Ffamily%3DArchitects%2BDaughter;fontSize=20;" parent="1" vertex="1">
          <mxGeometry x="1915" y="66.25" width="100" height="250" as="geometry" />
        </mxCell>
        <mxCell id="mHLDe494p_YbO8qeRfrM-65" value="&amp;nbsp; &amp;nbsp; rc&amp;nbsp; &amp;nbsp;&amp;nbsp;" style="text;html=1;align=center;verticalAlign=middle;resizable=0;points=[];autosize=1;strokeColor=#B09500;sketch=1;hachureGap=4;pointerEvents=0;fontFamily=Architects Daughter;fontSource=https%3A%2F%2Ffonts.googleapis.com%2Fcss%3Ffamily%3DArchitects%2BDaughter;fontSize=20;fillColor=#e3c800;fontColor=#000000;" parent="1" vertex="1">
          <mxGeometry x="1915" y="26.25" width="100" height="30" as="geometry" />
        </mxCell>
        <mxCell id="mHLDe494p_YbO8qeRfrM-66" value="" style="shape=note;whiteSpace=wrap;html=1;backgroundOutline=1;darkOpacity=0.05;strokeColor=none;fillStyle=solid;direction=west;gradientDirection=north;gradientColor=#FFF2A1;sketch=1;shadow=1;size=20;fontSize=24;jiggle=2;pointerEvents=1;hachureGap=4;fontFamily=Architects Daughter;fontSource=https%3A%2F%2Ffonts.googleapis.com%2Fcss%3Ffamily%3DArchitects%2BDaughter;fillColor=#C3ABD0;" parent="1" vertex="1">
          <mxGeometry x="1450" y="566.25" width="140" height="200" as="geometry" />
        </mxCell>
        <mxCell id="mHLDe494p_YbO8qeRfrM-67" value="&lt;div style=&quot;text-align: left&quot;&gt;help&lt;/div&gt;&lt;div style=&quot;text-align: left&quot;&gt;q&lt;/div&gt;&lt;div style=&quot;text-align: left&quot;&gt;quit&lt;/div&gt;&lt;div style=&quot;text-align: left&quot;&gt;&lt;br&gt;&lt;/div&gt;&lt;div style=&quot;text-align: left&quot;&gt;disp&lt;/div&gt;&lt;div style=&quot;text-align: left&quot;&gt;scr&lt;/div&gt;" style="text;html=1;align=center;verticalAlign=middle;resizable=0;points=[];autosize=1;strokeColor=none;sketch=1;hachureGap=4;pointerEvents=0;fontFamily=Architects Daughter;fontSource=https%3A%2F%2Ffonts.googleapis.com%2Fcss%3Ffamily%3DArchitects%2BDaughter;fontSize=20;" parent="1" vertex="1">
          <mxGeometry x="1475" y="606.25" width="50" height="150" as="geometry" />
        </mxCell>
        <mxCell id="mHLDe494p_YbO8qeRfrM-68" value="&amp;nbsp; &amp;nbsp;op&amp;nbsp; &amp;nbsp;" style="text;html=1;align=center;verticalAlign=middle;resizable=0;points=[];autosize=1;strokeColor=#B09500;sketch=1;hachureGap=4;pointerEvents=0;fontFamily=Architects Daughter;fontSource=https%3A%2F%2Ffonts.googleapis.com%2Fcss%3Ffamily%3DArchitects%2BDaughter;fontSize=20;fillColor=#e3c800;fontColor=#000000;" parent="1" vertex="1">
          <mxGeometry x="1475" y="571.25" width="90" height="30" as="geometry" />
        </mxCell>
        <mxCell id="Urr07MJI4QL6a97TOTy7-1" value="" style="edgeStyle=none;curved=1;rounded=0;sketch=1;orthogonalLoop=1;jettySize=auto;html=1;endArrow=open;sourcePerimeterSpacing=8;targetPerimeterSpacing=8;fontSize=16;shape=flexArrow;rounded=1;startSize=8;endSize=8;fontFamily=Architects Daughter;fontSource=https%3A%2F%2Ffonts.googleapis.com%2Fcss%3Ffamily%3DArchitects%2BDaughter;fillColor=#e3c800;strokeColor=#B09500;exitX=-0.008;exitY=0.4;exitDx=0;exitDy=0;exitPerimeter=0;entryX=1.013;entryY=0.448;entryDx=0;entryDy=0;entryPerimeter=0;" edge="1" parent="1" source="mHLDe494p_YbO8qeRfrM-12" target="Urr07MJI4QL6a97TOTy7-2">
          <mxGeometry width="140" relative="1" as="geometry">
            <mxPoint x="319.02" y="274.17000000000013" as="sourcePoint" />
            <mxPoint x="400" y="470" as="targetPoint" />
            <Array as="points">
              <mxPoint x="370" y="234" />
              <mxPoint x="370" y="479" />
            </Array>
          </mxGeometry>
        </mxCell>
        <mxCell id="Urr07MJI4QL6a97TOTy7-2" value="" style="shape=note;whiteSpace=wrap;html=1;backgroundOutline=1;darkOpacity=0.05;fillColor=#FFF9B2;strokeColor=none;fillStyle=solid;direction=west;gradientDirection=north;gradientColor=#FFF2A1;sketch=1;shadow=1;size=20;fontSize=24;jiggle=2;pointerEvents=1;hachureGap=4;fontFamily=Architects Daughter;fontSource=https%3A%2F%2Ffonts.googleapis.com%2Fcss%3Ffamily%3DArchitects%2BDaughter;" vertex="1" parent="1">
          <mxGeometry x="425" y="380" width="130" height="180" as="geometry" />
        </mxCell>
        <mxCell id="Urr07MJI4QL6a97TOTy7-3" value="&amp;nbsp; market&amp;nbsp;&amp;nbsp;" style="text;html=1;align=center;verticalAlign=middle;resizable=0;points=[];autosize=1;sketch=1;hachureGap=4;pointerEvents=0;fontFamily=Architects Daughter;fontSource=https%3A%2F%2Ffonts.googleapis.com%2Fcss%3Ffamily%3DArchitects%2BDaughter;fontSize=20;fillColor=#e3c800;strokeColor=#B09500;fontColor=#000000;" vertex="1" parent="1">
          <mxGeometry x="430" y="390" width="120" height="30" as="geometry" />
        </mxCell>
        <mxCell id="Urr07MJI4QL6a97TOTy7-4" value="&lt;div style=&quot;text-align: left&quot;&gt;clear&lt;/div&gt;&lt;div style=&quot;text-align: left&quot;&gt;load&lt;/div&gt;&lt;div style=&quot;text-align: left&quot;&gt;&lt;br&gt;&lt;/div&gt;&lt;div style=&quot;text-align: left&quot;&gt;disc&lt;/div&gt;&lt;div style=&quot;text-align: left&quot;&gt;scr&lt;/div&gt;&lt;span style=&quot;text-align: left&quot;&gt;&lt;br&gt;&lt;/span&gt;" style="text;html=1;resizable=0;autosize=1;align=center;verticalAlign=middle;points=[];fillColor=none;strokeColor=none;rounded=0;sketch=1;hachureGap=4;pointerEvents=0;fontFamily=Architects Daughter;fontSource=https%3A%2F%2Ffonts.googleapis.com%2Fcss%3Ffamily%3DArchitects%2BDaughter;fontSize=20;" vertex="1" parent="1">
          <mxGeometry x="440" y="420" width="60" height="150" as="geometry" />
        </mxCell>
        <mxCell id="Urr07MJI4QL6a97TOTy7-8" value="" style="shape=note;whiteSpace=wrap;html=1;backgroundOutline=1;darkOpacity=0.05;strokeColor=none;fillStyle=solid;direction=west;gradientDirection=north;sketch=1;shadow=1;size=20;fontSize=24;jiggle=2;pointerEvents=1;hachureGap=4;fontFamily=Architects Daughter;fontSource=https%3A%2F%2Ffonts.googleapis.com%2Fcss%3Ffamily%3DArchitects%2BDaughter;gradientColor=#FFF2CC;fillColor=#97D077;" vertex="1" parent="1">
          <mxGeometry x="375" y="830" width="155" height="670" as="geometry" />
        </mxCell>
        <mxCell id="Urr07MJI4QL6a97TOTy7-9" value="&amp;nbsp; &amp;nbsp; disc&amp;nbsp; &amp;nbsp;&amp;nbsp;" style="text;html=1;align=center;verticalAlign=middle;resizable=0;points=[];autosize=1;sketch=1;hachureGap=4;pointerEvents=0;fontFamily=Architects Daughter;fontSource=https%3A%2F%2Ffonts.googleapis.com%2Fcss%3Ffamily%3DArchitects%2BDaughter;fontSize=20;fillColor=#e3c800;strokeColor=#B09500;fontColor=#000000;" vertex="1" parent="1">
          <mxGeometry x="392.5" y="840" width="120" height="30" as="geometry" />
        </mxCell>
        <mxCell id="Urr07MJI4QL6a97TOTy7-10" value="&lt;div style=&quot;&quot;&gt;&lt;/div&gt;&lt;span style=&quot;&quot;&gt;help&lt;br&gt;q&lt;br&gt;quit&lt;br&gt;&lt;br&gt;ipo&lt;br&gt;map&lt;br&gt;rtp_sectors&lt;br&gt;gainers&lt;br&gt;losers&lt;br&gt;orders&lt;br&gt;ark_orders&lt;br&gt;up_earnings&lt;br&gt;high_short&lt;br&gt;low_float&lt;br&gt;simply_wallst&lt;br&gt;spachero&lt;br&gt;unwhales&lt;br&gt;valuation&lt;br&gt;performance&lt;br&gt;spectrum&lt;br&gt;latest&lt;br&gt;trending&lt;br&gt;ratings&lt;br&gt;darkshort&lt;br&gt;shortvol&lt;br&gt;&lt;/span&gt;" style="text;html=1;resizable=0;autosize=1;align=left;verticalAlign=middle;points=[];fillColor=none;strokeColor=none;rounded=0;sketch=1;hachureGap=4;pointerEvents=0;fontFamily=Architects Daughter;fontSource=https%3A%2F%2Ffonts.googleapis.com%2Fcss%3Ffamily%3DArchitects%2BDaughter;fontSize=20;" vertex="1" parent="1">
          <mxGeometry x="390" y="870" width="140" height="610" as="geometry" />
        </mxCell>
        <mxCell id="Urr07MJI4QL6a97TOTy7-11" value="" style="shape=note;whiteSpace=wrap;html=1;backgroundOutline=1;darkOpacity=0.05;strokeColor=none;fillStyle=solid;direction=west;gradientDirection=north;sketch=1;shadow=1;size=20;fontSize=24;jiggle=2;pointerEvents=1;hachureGap=4;fontFamily=Architects Daughter;fontSource=https%3A%2F%2Ffonts.googleapis.com%2Fcss%3Ffamily%3DArchitects%2BDaughter;gradientColor=#FFF2CC;fillColor=#97D077;" vertex="1" parent="1">
          <mxGeometry x="190" y="830" width="150" height="390" as="geometry" />
        </mxCell>
        <mxCell id="Urr07MJI4QL6a97TOTy7-12" value="&amp;nbsp; &amp;nbsp; scr&amp;nbsp; &amp;nbsp;&amp;nbsp;" style="text;html=1;align=center;verticalAlign=middle;resizable=0;points=[];autosize=1;sketch=1;hachureGap=4;pointerEvents=0;fontFamily=Architects Daughter;fontSource=https%3A%2F%2Ffonts.googleapis.com%2Fcss%3Ffamily%3DArchitects%2BDaughter;fontSize=20;fillColor=#e3c800;strokeColor=#B09500;fontColor=#000000;" vertex="1" parent="1">
          <mxGeometry x="210" y="840" width="110" height="30" as="geometry" />
        </mxCell>
        <mxCell id="Urr07MJI4QL6a97TOTy7-13" value="&lt;div style=&quot;&quot;&gt;&lt;/div&gt;&lt;span style=&quot;&quot;&gt;help&lt;br&gt;q&lt;br&gt;quit&lt;br&gt;&lt;br&gt;historical&lt;br&gt;overview&lt;br&gt;valuation&lt;br&gt;financial&lt;br&gt;ownership&lt;br&gt;performance&lt;br&gt;technical&lt;br&gt;&lt;br&gt;signals&lt;br&gt;&lt;/span&gt;" style="text;html=1;resizable=0;autosize=1;align=left;verticalAlign=middle;points=[];fillColor=none;strokeColor=none;rounded=0;sketch=1;hachureGap=4;pointerEvents=0;fontFamily=Architects Daughter;fontSource=https%3A%2F%2Ffonts.googleapis.com%2Fcss%3Ffamily%3DArchitects%2BDaughter;fontSize=20;" vertex="1" parent="1">
          <mxGeometry x="200" y="880" width="140" height="320" as="geometry" />
        </mxCell>
        <mxCell id="Urr07MJI4QL6a97TOTy7-14" value="" style="edgeStyle=none;curved=1;rounded=0;sketch=1;orthogonalLoop=1;jettySize=auto;html=1;endArrow=open;sourcePerimeterSpacing=8;targetPerimeterSpacing=8;fontSize=16;shape=flexArrow;rounded=1;startSize=8;endSize=61.04;fontFamily=Architects Daughter;fontSource=https%3A%2F%2Ffonts.googleapis.com%2Fcss%3Ffamily%3DArchitects%2BDaughter;strokeColor=#B09500;endWidth=239.16666666666669;width=20.666666666666668;fillColor=#97D077;" edge="1" parent="1">
          <mxGeometry width="140" relative="1" as="geometry">
            <mxPoint x="480" y="606.25" as="sourcePoint" />
            <mxPoint x="480" y="790" as="targetPoint" />
            <Array as="points" />
          </mxGeometry>
        </mxCell>
        <mxCell id="Urr07MJI4QL6a97TOTy7-15" value="" style="shape=note;whiteSpace=wrap;html=1;backgroundOutline=1;darkOpacity=0.05;fillColor=#FFF9B2;strokeColor=none;fillStyle=solid;direction=west;gradientDirection=north;gradientColor=#FFF2A1;sketch=1;shadow=1;size=20;fontSize=24;jiggle=2;pointerEvents=1;hachureGap=4;fontFamily=Architects Daughter;fontSource=https%3A%2F%2Ffonts.googleapis.com%2Fcss%3Ffamily%3DArchitects%2BDaughter;align=left;" vertex="1" parent="1">
          <mxGeometry x="252.5" y="-560" width="140" height="160" as="geometry" />
        </mxCell>
      </root>
    </mxGraphModel>
  </diagram>
</mxfile>
